<?xml version="1.0" encoding="UTF-8"?>
<svg version="1.1" xmlns="http://www.w3.org/2000/svg" width="96" height="96">
<path d="M0 0 C1.92578125 1.0859375 1.92578125 1.0859375 4.61328125 3.0859375 C4.61328125 7.0859375 4.61328125 7.0859375 2.67578125 9.9609375 C-0.38671875 12.0859375 -0.38671875 12.0859375 -2.58203125 11.88671875 C-4.94921875 11.2734375 -4.94921875 11.2734375 -7.203125 10.50390625 C-9.40992013 9.89525899 -9.40992013 9.89525899 -11.55078125 10.8203125 C-14.53350504 12.87648805 -15.60734986 15.67217296 -16.38671875 19.0859375 C-16.50528424 23.22875517 -15.96423098 26.80257699 -14.26171875 30.5859375 C-11.38923426 32.88392509 -9.01684607 32.96288234 -5.38671875 33.0859375 C-2.0517257 32.25423785 -2.0517257 32.25423785 0.61328125 31.0859375 C2.59328125 33.3959375 4.57328125 35.7059375 6.61328125 38.0859375 C1.67105757 42.55294736 -0.8776531 44.81071666 -7.57421875 45.3359375 C-13.97899761 44.915952 -19.3304199 43.72905906 -23.76171875 38.8359375 C-29.43264422 31.2431984 -30.53826386 24.49953926 -29.38671875 15.0859375 C-27.4959594 8.4180422 -24.04864294 3.6164514 -18.05078125 0.0859375 C-12.28579408 -2.07804595 -5.77558232 -2.21192515 0 0 Z " fill="#509ABA" transform="translate(55.38671875,24.9140625)"/>
<path d="M0 0 C1.65 0 3.3 0 5 0 C5 1.65 5 3.3 5 5 C6.98 5 8.96 5 11 5 C11 6.98 11 8.96 11 11 C9.02 11 7.04 11 5 11 C5 12.98 5 14.96 5 17 C3.35 17 1.7 17 0 17 C0 15.02 0 13.04 0 11 C-1.65 11 -3.3 11 -5 11 C-5 9.02 -5 7.04 -5 5 C-3.35 5 -1.7 5 0 5 C0 3.35 0 1.7 0 0 Z " fill="#519AB9" transform="translate(66,38)"/>
<path d="M0 0 C1.65 0 3.3 0 5 0 C5 1.65 5 3.3 5 5 C6.32 5 7.64 5 9 5 C9 6.32 9 7.64 9 9 C7.68 9 6.36 9 5 9 C5 10.65 5 12.3 5 14 C3.35 14 1.7 14 0 14 C0 12.35 0 10.7 0 9 C-1.65 9 -3.3 9 -5 9 C-5 7.68 -5 6.36 -5 5 C-3.35 5 -1.7 5 0 5 C0 3.35 0 1.7 0 0 Z " fill="#519ABA" transform="translate(50,39)"/>
</svg>
